<svg xmlns="http://www.w3.org/2000/svg" xmlns:svg="http://www.w3.org/2000/svg" id="svg2" width="744.094" height="1052.362"><metadata id="metadata7"/><g id="layer1"><rect id="rect3381" width="22.233" height="19.25" x="379.945" y="78.643" fill="#ff0" fill-opacity="1" stroke="#000" stroke-dasharray="none" stroke-miterlimit="4" stroke-opacity="1" stroke-width=".75" opacity=".5"/><path id="path2383" fill="red" fill-opacity="1" stroke="#000" stroke-dasharray="none" stroke-miterlimit="4" stroke-opacity="1" stroke-width="1" d="M 295,34.362183 L 287.25,47.785576 L 271.75,47.785576 L 264,34.362183 L 271.75,20.938789 L 287.25,20.938789 L 295,34.362183 z" opacity=".5" transform="matrix(0.7182157,0,0,0.7182157,94.750175,5.6827236)"/><path id="path2393" fill="#0f0" fill-opacity="1" stroke="#000" stroke-dasharray="none" stroke-miterlimit="4" stroke-opacity="1" stroke-width="1" d="M 295,34.362183 L 287.25,47.785576 L 271.75,47.785576 L 264,34.362183 L 271.75,20.938789 L 287.25,20.938789 L 295,34.362183 z" opacity=".5" transform="matrix(0.7182157,0,0,0.7182157,159.25871,3.6827236)"/><path id="path2395" fill="#00f" fill-opacity="1" stroke="#000" stroke-dasharray="none" stroke-miterlimit="4" stroke-opacity="1" stroke-width="1" d="M 295,34.362183 L 287.25,47.785576 L 271.75,47.785576 L 264,34.362183 L 271.75,20.938789 L 287.25,20.938789 L 295,34.362183 z" opacity=".5" transform="matrix(0.7182157,0,0,0.7182157,93.25871,61.682724)"/><text id="text3169" x="285.522" y="17.873" fill="#000" fill-opacity="1" stroke="none" stroke-linecap="butt" stroke-linejoin="miter" stroke-opacity="1" stroke-width="1" font-family="Bitstream Vera Sans" font-size="12" font-style="normal" font-weight="normal" xml:space="preserve"><tspan id="tspan3173" x="285.522" y="17.873" font-size="6">1</tspan></text><text id="text3177" x="369.234" y="43.042" fill="#000" fill-opacity="1" stroke="none" stroke-linecap="butt" stroke-linejoin="miter" stroke-opacity="1" stroke-width="1" font-family="Bitstream Vera Sans" font-size="12" font-style="normal" font-weight="normal" xml:space="preserve"><tspan id="tspan3179" x="369.234" y="43.042" font-size="6">1</tspan></text><text id="text3181" x="284.588" y="74.391" fill="#000" fill-opacity="1" stroke="none" stroke-linecap="butt" stroke-linejoin="miter" stroke-opacity="1" stroke-width="1" font-family="Bitstream Vera Sans" font-size="6" font-style="normal" font-weight="normal" xml:space="preserve"><tspan id="tspan3183" x="284.588" y="74.391" font-size="6">1</tspan></text><text id="text3185" x="374.691" y="75.172" fill="#000" fill-opacity="1" stroke="none" stroke-linecap="butt" stroke-linejoin="miter" stroke-opacity="1" stroke-width="1" font-family="Bitstream Vera Sans" font-size="6" font-style="normal" font-weight="normal" xml:space="preserve"><tspan id="tspan3187" x="374.691" y="75.172" font-size="6">1</tspan></text><flowRoot id="flowRoot3197" fill="#000" fill-opacity="1" stroke="none" stroke-linecap="butt" stroke-linejoin="miter" stroke-opacity="1" stroke-width="1" font-family="Bitstream Vera Sans" font-size="12" font-style="normal" font-weight="normal" transform="translate(-132.85639,-80.100505)" xml:space="preserve"><flowRegion id="flowRegion3199"><rect id="rect3201" width="28.5" height="20" x="436" y="93.362"/></flowRegion><flowPara id="flowPara3203" font-size="6">2</flowPara></flowRoot><flowRoot id="flowRoot3205" fill="#000" fill-opacity="1" stroke="none" stroke-linecap="butt" stroke-linejoin="miter" stroke-opacity="1" stroke-width="1" font-family="Bitstream Vera Sans" font-size="6" font-style="normal" font-weight="normal" transform="translate(5.7535406,-66.187691)" xml:space="preserve"><flowRegion id="flowRegion3207"><rect id="rect3209" width="28.5" height="20" x="436" y="93.362" font-size="6"/></flowRegion><flowPara id="flowPara3211" font-size="6">2</flowPara></flowRoot><flowRoot id="flowRoot3213" fill="#000" fill-opacity="1" stroke="none" stroke-linecap="butt" stroke-linejoin="miter" stroke-opacity="1" stroke-width="1" font-family="Bitstream Vera Sans" font-size="6" font-style="normal" font-weight="normal" transform="translate(-29.432751,-24.298604)" xml:space="preserve"><flowRegion id="flowRegion3215"><rect id="rect3217" width="28.5" height="20" x="436" y="93.362" font-size="6"/></flowRegion><flowPara id="flowPara3219" font-size="6">2</flowPara></flowRoot><flowRoot id="flowRoot3221" fill="#000" fill-opacity="1" stroke="none" stroke-linecap="butt" stroke-linejoin="miter" stroke-opacity="1" stroke-width="1" font-family="Bitstream Vera Sans" font-size="12" font-style="normal" font-weight="normal" transform="translate(-60.275157,-68.106216)" xml:space="preserve"><flowRegion id="flowRegion3223"><rect id="rect3225" width="28.5" height="20" x="436" y="93.362"/></flowRegion><flowPara id="flowPara3227" font-size="6">2</flowPara></flowRoot><text id="text3229" x="406.5" y="102.862" fill="#000" fill-opacity="1" stroke="none" stroke-linecap="butt" stroke-linejoin="miter" stroke-opacity="1" stroke-width="1" font-family="Bitstream Vera Sans" font-size="6" font-style="normal" font-weight="normal" xml:space="preserve"><tspan id="tspan3231" x="406.5" y="102.862" font-size="6">3</tspan></text><text id="text3233" x="301.696" y="74.334" fill="#000" fill-opacity="1" stroke="none" stroke-linecap="butt" stroke-linejoin="miter" stroke-opacity="1" stroke-width="1" font-family="Bitstream Vera Sans" font-size="6" font-style="normal" font-weight="normal" xml:space="preserve"><tspan id="tspan3235" x="301.696" y="74.334" font-size="6">3</tspan></text><text id="text3237" x="367.75" y="16.761" fill="#000" fill-opacity="1" stroke="none" stroke-linecap="butt" stroke-linejoin="miter" stroke-opacity="1" stroke-width="1" font-family="Bitstream Vera Sans" font-size="12" font-style="normal" font-weight="normal" xml:space="preserve"><tspan id="tspan3239" x="367.75" y="16.761" font-size="6">3</tspan></text><text id="text3241" x="309.974" y="32.253" fill="#000" fill-opacity="1" stroke="none" stroke-linecap="butt" stroke-linejoin="miter" stroke-opacity="1" stroke-width="1" font-family="Bitstream Vera Sans" font-size="12" font-style="normal" font-weight="normal" xml:space="preserve"><tspan id="tspan3243" x="309.974" y="32.253" font-size="6">3</tspan></text><text id="text3245" x="373" y="105.862" fill="#000" fill-opacity="1" stroke="none" stroke-linecap="butt" stroke-linejoin="miter" stroke-opacity="1" stroke-width="1" font-family="Bitstream Vera Sans" font-size="6" font-style="normal" font-weight="normal" xml:space="preserve"><tspan id="tspan3247" x="373" y="105.862" font-size="6">4</tspan></text><text id="text3249" x="479.158" y="35.583" fill="#000" fill-opacity="1" stroke="none" stroke-linecap="butt" stroke-linejoin="miter" stroke-opacity="1" stroke-width="1" font-family="Bitstream Vera Sans" font-size="6" font-style="normal" font-weight="normal" xml:space="preserve"><tspan id="tspan3251" x="479.158" y="35.583" font-size="6">4</tspan></text><text id="text3253" x="349.904" y="15.598" fill="#000" fill-opacity="1" stroke="none" stroke-linecap="butt" stroke-linejoin="miter" stroke-opacity="1" stroke-width="1" font-family="Bitstream Vera Sans" font-size="6" font-style="normal" font-weight="normal" xml:space="preserve"><tspan id="tspan3255" x="349.904" y="15.598" font-size="6">4</tspan></text><text id="text3257" x="303.174" y="47.964" fill="#000" fill-opacity="1" stroke="none" stroke-linecap="butt" stroke-linejoin="miter" stroke-opacity="1" stroke-width="1" font-family="Bitstream Vera Sans" font-size="6" font-style="normal" font-weight="normal" xml:space="preserve"><tspan id="tspan3259" x="303.174" y="47.964" font-size="6">4</tspan></text><path id="path3261" fill="#000" fill-opacity="1" stroke="#000" stroke-dasharray="none" stroke-miterlimit="4" stroke-opacity="1" stroke-width="1" d="M 418.5,96.112183 A 1.25,1.25 0 1 1 416,96.112183 A 1.25,1.25 0 1 1 418.5,96.112183 z" opacity="1" transform="matrix(0.8571429,0,0,0.8571429,-67.642857,-42.519692)"/><text id="text3263" x="492.36" y="50.649" fill="#000" fill-opacity="1" stroke="none" stroke-linecap="butt" stroke-linejoin="miter" stroke-opacity="1" stroke-width="1" font-family="Bitstream Vera Sans" font-size="6" font-style="normal" font-weight="normal" xml:space="preserve"><tspan id="tspan3265" x="492.36" y="50.649" font-size="6">5</tspan></text><text id="text3267" x="309.17" y="87.61" fill="#000" fill-opacity="1" stroke="none" stroke-linecap="butt" stroke-linejoin="miter" stroke-opacity="1" stroke-width="1" font-family="Bitstream Vera Sans" font-size="6" font-style="normal" font-weight="normal" xml:space="preserve"><tspan id="tspan3269" x="309.17" y="87.61" font-size="6">5</tspan></text><text id="text3271" x="340.429" y="30.856" fill="#000" fill-opacity="1" stroke="none" stroke-linecap="butt" stroke-linejoin="miter" stroke-opacity="1" stroke-width="1" font-family="Bitstream Vera Sans" font-size="6" font-style="normal" font-weight="normal" xml:space="preserve"><tspan id="tspan3273" x="340.429" y="30.856" font-size="6">5</tspan></text><text id="text3275" x="285.214" y="47.311" fill="#000" fill-opacity="1" stroke="none" stroke-linecap="butt" stroke-linejoin="miter" stroke-opacity="1" stroke-width="1" font-family="Bitstream Vera Sans" font-size="6" font-style="normal" font-weight="normal" xml:space="preserve"><tspan id="tspan3277" x="285.214" y="47.311" font-size="6">5</tspan></text><text id="text3279" x="506.86" y="50.149" fill="#000" fill-opacity="1" stroke="none" stroke-linecap="butt" stroke-linejoin="miter" stroke-opacity="1" stroke-width="1" font-family="Bitstream Vera Sans" font-size="6" font-style="normal" font-weight="normal" xml:space="preserve"><tspan id="tspan3281" x="506.86" y="50.149" font-size="6">6</tspan></text><text id="text3283" x="507.517" y="33.37" fill="#000" fill-opacity="1" stroke="none" stroke-linecap="butt" stroke-linejoin="miter" stroke-opacity="1" stroke-width="1" font-family="Bitstream Vera Sans" font-size="6" font-style="normal" font-weight="normal" xml:space="preserve"><tspan id="tspan3285" x="507.517" y="33.37" font-size="6">6</tspan></text><text id="text3287" x="348.918" y="45.205" fill="#000" fill-opacity="1" stroke="none" stroke-linecap="butt" stroke-linejoin="miter" stroke-opacity="1" stroke-width="1" font-family="Bitstream Vera Sans" font-size="6" font-style="normal" font-weight="normal" xml:space="preserve"><tspan id="tspan3289" x="348.918" y="45.205" font-size="6">6</tspan></text><text id="text3291" x="275.672" y="31.962" fill="#000" fill-opacity="1" stroke="none" stroke-linecap="butt" stroke-linejoin="miter" stroke-opacity="1" stroke-width="1" font-family="Bitstream Vera Sans" font-size="6" font-style="normal" font-weight="normal" xml:space="preserve"><tspan id="tspan3293" x="275.672" y="31.962" font-size="6">6</tspan></text><text id="text3295" x="302.298" y="103.466" fill="#000" fill-opacity="1" stroke="none" stroke-linecap="butt" stroke-linejoin="miter" stroke-opacity="1" stroke-width="1" font-family="Bitstream Vera Sans" font-size="6" font-style="normal" font-weight="normal" xml:space="preserve"><tspan id="tspan3297" x="302.298" y="103.466" font-size="6">7</tspan></text><flowRoot id="flowRoot3299" fill="#000" fill-opacity="1" stroke="none" stroke-linecap="butt" stroke-linejoin="miter" stroke-opacity="1" stroke-width="1" font-family="Bitstream Vera Sans" font-size="6" font-style="normal" font-weight="normal" transform="translate(33.898804,-28.152974)" xml:space="preserve"><flowRegion id="flowRegion3301"><rect id="rect3303" width="28.5" height="20" x="436" y="93.362" font-size="6"/></flowRegion><flowPara id="flowPara3305" font-size="6">8</flowPara></flowRoot><text id="text3307" x="282.624" y="103.828" fill="#000" fill-opacity="1" stroke="none" stroke-linecap="butt" stroke-linejoin="miter" stroke-opacity="1" stroke-width="1" font-family="Bitstream Vera Sans" font-size="6" font-style="normal" font-weight="normal" xml:space="preserve"><tspan id="tspan3309" x="282.624" y="103.828" font-size="6">9</tspan></text><text id="text3311" x="495.296" y="71.008" fill="#000" fill-opacity="1" stroke="none" stroke-linecap="butt" stroke-linejoin="miter" stroke-opacity="1" stroke-width="1" font-family="Bitstream Vera Sans" font-size="6" font-style="normal" font-weight="normal" xml:space="preserve"><tspan id="tspan3313" x="495.296" y="71.008" font-size="6">10</tspan></text><text id="text3315" x="272.982" y="88.74" fill="#000" fill-opacity="1" stroke="none" stroke-linecap="butt" stroke-linejoin="miter" stroke-opacity="1" stroke-width="1" font-family="Bitstream Vera Sans" font-size="6" font-style="normal" font-weight="normal" xml:space="preserve"><tspan id="tspan3317" x="272.982" y="88.74" font-size="6">11</tspan></text><text id="text3319" x="523.656" y="68.795" fill="#000" fill-opacity="1" stroke="none" stroke-linecap="butt" stroke-linejoin="miter" stroke-opacity="1" stroke-width="1" font-family="Bitstream Vera Sans" font-size="6" font-style="normal" font-weight="normal" xml:space="preserve"><tspan id="tspan3321" x="523.656" y="68.795" font-size="6">12</tspan></text><path id="path3323" fill="#000" fill-opacity="1" stroke="#000" stroke-dasharray="none" stroke-miterlimit="4" stroke-opacity="1" stroke-width="1" d="M 418.5,96.112183 A 1.25,1.25 0 1 1 416,96.112183 A 1.25,1.25 0 1 1 418.5,96.112183 z" opacity="1" transform="matrix(0.8571429,0,0,0.8571429,8.0182902,-44.363731)"/><path id="path3325" fill="#000" fill-opacity="1" stroke="#000" stroke-dasharray="none" stroke-miterlimit="4" stroke-opacity="1" stroke-width="1" d="M 418.5,96.112183 A 1.25,1.25 0 1 1 416,96.112183 A 1.25,1.25 0 1 1 418.5,96.112183 z" opacity="1" transform="matrix(0.8571429,0,0,0.8571429,-3.1324674,-44.469439)"/><path id="path3327" fill="#000" fill-opacity="1" stroke="#000" stroke-dasharray="none" stroke-miterlimit="4" stroke-opacity="1" stroke-width="1" d="M 418.5,96.112183 A 1.25,1.25 0 1 1 416,96.112183 A 1.25,1.25 0 1 1 418.5,96.112183 z" opacity="1" transform="matrix(0.8571429,0,0,0.8571429,-8.9149529,-53.959032)"/><path id="path3329" fill="#000" fill-opacity="1" stroke="#000" stroke-dasharray="none" stroke-miterlimit="4" stroke-opacity="1" stroke-width="1" d="M 418.5,96.112183 A 1.25,1.25 0 1 1 416,96.112183 A 1.25,1.25 0 1 1 418.5,96.112183 z" opacity="1" transform="matrix(0.8571429,0,0,0.8571429,-2.8395741,-63.550022)"/><path id="path3331" fill="#000" fill-opacity="1" stroke="#000" stroke-dasharray="none" stroke-miterlimit="4" stroke-opacity="1" stroke-width="1" d="M 418.5,96.112183 A 1.25,1.25 0 1 1 416,96.112183 A 1.25,1.25 0 1 1 418.5,96.112183 z" opacity="1" transform="matrix(0.8571429,0,0,0.8571429,-56.66369,-42.519692)"/><path id="path3333" fill="#000" fill-opacity="1" stroke="#000" stroke-dasharray="none" stroke-miterlimit="4" stroke-opacity="1" stroke-width="1" d="M 418.5,96.112183 A 1.25,1.25 0 1 1 416,96.112183 A 1.25,1.25 0 1 1 418.5,96.112183 z" opacity="1" transform="matrix(0.8571429,0,0,0.8571429,-51.159875,-51.898372)"/><path id="path3335" fill="#000" fill-opacity="1" stroke="#000" stroke-dasharray="none" stroke-miterlimit="4" stroke-opacity="1" stroke-width="1" d="M 418.5,96.112183 A 1.25,1.25 0 1 1 416,96.112183 A 1.25,1.25 0 1 1 418.5,96.112183 z" opacity="1" transform="matrix(0.8571429,0,0,0.8571429,-56.779807,-61.57173)"/><path id="path3337" fill="#000" fill-opacity="1" stroke="#000" stroke-dasharray="none" stroke-miterlimit="4" stroke-opacity="1" stroke-width="1" d="M 418.5,96.112183 A 1.25,1.25 0 1 1 416,96.112183 A 1.25,1.25 0 1 1 418.5,96.112183 z" opacity="1" transform="matrix(0.8571429,0,0,0.8571429,-67.839574,-61.596856)"/><path id="path3339" fill="#000" fill-opacity="1" stroke="#000" stroke-dasharray="none" stroke-miterlimit="4" stroke-opacity="1" stroke-width="1" d="M 418.5,96.112183 A 1.25,1.25 0 1 1 416,96.112183 A 1.25,1.25 0 1 1 418.5,96.112183 z" opacity="1" transform="matrix(0.8571429,0,0,0.8571429,-73.142875,-52.080352)"/><path id="path3341" fill="#000" fill-opacity="1" stroke="#000" stroke-dasharray="none" stroke-miterlimit="4" stroke-opacity="1" stroke-width="1" d="M 418.5,96.112183 A 1.25,1.25 0 1 1 416,96.112183 A 1.25,1.25 0 1 1 418.5,96.112183 z" opacity="1" transform="matrix(0.8571429,0,0,0.8571429,-63.617748,-5.7969738)"/><path id="path3343" fill="#000" fill-opacity="1" stroke="#000" stroke-dasharray="none" stroke-miterlimit="4" stroke-opacity="1" stroke-width="1" d="M 418.5,96.112183 A 1.25,1.25 0 1 1 416,96.112183 A 1.25,1.25 0 1 1 418.5,96.112183 z" opacity="1" transform="matrix(0.8571429,0,0,0.8571429,-52.5727,3.6622885)"/><path id="path3345" fill="#000" fill-opacity="1" stroke="#000" stroke-dasharray="none" stroke-miterlimit="4" stroke-opacity="1" stroke-width="1" d="M 418.5,96.112183 A 1.25,1.25 0 1 1 416,96.112183 A 1.25,1.25 0 1 1 418.5,96.112183 z" opacity="1" transform="matrix(0.8571429,0,0,0.8571429,-58.219147,-5.655731)"/><path id="path3347" fill="#000" fill-opacity="1" stroke="#000" stroke-dasharray="none" stroke-miterlimit="4" stroke-opacity="1" stroke-width="1" d="M 418.5,96.112183 A 1.25,1.25 0 1 1 416,96.112183 A 1.25,1.25 0 1 1 418.5,96.112183 z" opacity="1" transform="matrix(0.8571429,0,0,0.8571429,-68.8647,-5.7163911)"/><path id="path3349" fill="#000" fill-opacity="1" stroke="#000" stroke-dasharray="none" stroke-miterlimit="4" stroke-opacity="1" stroke-width="1" d="M 418.5,96.112183 A 1.25,1.25 0 1 1 416,96.112183 A 1.25,1.25 0 1 1 418.5,96.112183 z" opacity="1" transform="matrix(0.8571429,0,0,0.8571429,-74.854292,4.0357643)"/><path id="path3351" fill="#000" fill-opacity="1" stroke="#000" stroke-dasharray="none" stroke-miterlimit="4" stroke-opacity="1" stroke-width="1" d="M 418.5,96.112183 A 1.25,1.25 0 1 1 416,96.112183 A 1.25,1.25 0 1 1 418.5,96.112183 z" opacity="1" transform="matrix(0.8571429,0,0,0.8571429,-69.339574,13.802638)"/><path id="path3353" fill="#000" fill-opacity="1" stroke="#000" stroke-dasharray="none" stroke-miterlimit="4" stroke-opacity="1" stroke-width="1" d="M 418.5,96.112183 A 1.25,1.25 0 1 1 416,96.112183 A 1.25,1.25 0 1 1 418.5,96.112183 z" opacity="1" transform="matrix(0.8571429,0,0,0.8571429,-58.244273,13.605939)"/><path id="path3355" fill="#000" fill-opacity="1" stroke="#000" stroke-dasharray="none" stroke-miterlimit="4" stroke-opacity="1" stroke-width="1" d="M 418.5,96.112183 A 1.25,1.25 0 1 1 416,96.112183 A 1.25,1.25 0 1 1 418.5,96.112183 z" opacity="1" transform="matrix(0.8571429,0,0,0.8571429,7.8467174,-63.368042)"/><path id="path3357" fill="#000" fill-opacity="1" stroke="#000" stroke-dasharray="none" stroke-miterlimit="4" stroke-opacity="1" stroke-width="1" d="M 418.5,96.112183 A 1.25,1.25 0 1 1 416,96.112183 A 1.25,1.25 0 1 1 418.5,96.112183 z" opacity="1" transform="matrix(0.8571429,0,0,0.8571429,13.689863,-54.055226)"/><path id="path3363" fill="#000" fill-opacity="1" stroke="#000" stroke-dasharray="none" stroke-miterlimit="4" stroke-opacity="1" stroke-width="1" d="M 418.5,96.112183 A 1.25,1.25 0 1 1 416,96.112183 A 1.25,1.25 0 1 1 418.5,96.112183 z" opacity="1" transform="matrix(0.8571429,0,0,0.8571429,22.137455,15.567619)"/><path id="path3365" fill="#000" fill-opacity="1" stroke="#000" stroke-dasharray="none" stroke-miterlimit="4" stroke-opacity="1" stroke-width="1" d="M 418.5,96.112183 A 1.25,1.25 0 1 1 416,96.112183 A 1.25,1.25 0 1 1 418.5,96.112183 z" opacity="1" transform="matrix(0.8571429,0,0,0.8571429,44.21462,-3.4752746)"/><path id="path3367" fill="#000" fill-opacity="1" stroke="#000" stroke-dasharray="none" stroke-miterlimit="4" stroke-opacity="1" stroke-width="1" d="M 418.5,96.112183 A 1.25,1.25 0 1 1 416,96.112183 A 1.25,1.25 0 1 1 418.5,96.112183 z" opacity="1" transform="matrix(0.8571429,0,0,0.8571429,22.20763,-3.6964687)"/><path id="path3369" fill="#000" fill-opacity="1" stroke="#000" stroke-dasharray="none" stroke-miterlimit="4" stroke-opacity="1" stroke-width="1" d="M 418.5,96.112183 A 1.25,1.25 0 1 1 416,96.112183 A 1.25,1.25 0 1 1 418.5,96.112183 z" opacity="1" transform="matrix(0.8571429,0,0,0.8571429,44.598242,15.584493)"/><path id="path3371" fill="#000" fill-opacity="1" stroke="#000" stroke-dasharray="none" stroke-miterlimit="4" stroke-opacity="1" stroke-width="1" d="M 418.5,96.112183 A 1.25,1.25 0 1 1 416,96.112183 A 1.25,1.25 0 1 1 418.5,96.112183 z" opacity="1" transform="matrix(0.8571429,0,0,0.8571429,-55.285011,-1.0699445)"/><path id="path3373" fill="#000" fill-opacity="1" stroke="#000" stroke-dasharray="none" stroke-miterlimit="4" stroke-opacity="1" stroke-width="1" d="M 418.5,96.112183 A 1.25,1.25 0 1 1 416,96.112183 A 1.25,1.25 0 1 1 418.5,96.112183 z" opacity="1" transform="matrix(0.8571429,0,0,0.8571429,-54.992117,8.8234537)"/><path id="path3375" fill="#000" fill-opacity="1" stroke="#000" stroke-dasharray="none" stroke-miterlimit="4" stroke-opacity="1" stroke-width="1" d="M 418.5,96.112183 A 1.25,1.25 0 1 1 416,96.112183 A 1.25,1.25 0 1 1 418.5,96.112183 z" opacity="1" transform="matrix(0.8571429,0,0,0.8571429,-63.562292,13.772308)"/><path id="path3377" fill="#000" fill-opacity="1" stroke="#000" stroke-dasharray="none" stroke-miterlimit="4" stroke-opacity="1" stroke-width="1" d="M 418.5,96.112183 A 1.25,1.25 0 1 1 416,96.112183 A 1.25,1.25 0 1 1 418.5,96.112183 z" opacity="1" transform="matrix(0.8571429,0,0,0.8571429,-72.39503,8.6969296)"/><path id="path3379" fill="#000" fill-opacity="1" stroke="#000" stroke-dasharray="none" stroke-miterlimit="4" stroke-opacity="1" stroke-width="1" d="M 418.5,96.112183 A 1.25,1.25 0 1 1 416,96.112183 A 1.25,1.25 0 1 1 418.5,96.112183 z" opacity="1" transform="matrix(0.8571429,0,0,0.8571429,-72.0614,-1.1964687)"/><path id="path2483" fill="#00ffef" fill-opacity="1" stroke="#000" stroke-dasharray="none" stroke-miterlimit="4" stroke-opacity="1" stroke-width="1" d="M 295,34.362183 L 287.25,47.785576 L 271.75,47.785576 L 264,34.362183 L 271.75,20.938789 L 287.25,20.938789 L 295,34.362183 z" opacity=".5" transform="matrix(0.7182157,0,0,0.7182157,138.55863,117.92729)"/><text id="text2485" x="329.331" y="130.117" fill="#000" fill-opacity="1" stroke="none" stroke-linecap="butt" stroke-linejoin="miter" stroke-opacity="1" stroke-width="1" font-family="Bitstream Vera Sans" font-size="12" font-style="normal" font-weight="normal" xml:space="preserve"><tspan id="tspan2487" x="329.331" y="130.117" font-size="6">1</tspan></text><flowRoot id="flowRoot2489" fill="#000" fill-opacity="1" stroke="none" stroke-linecap="butt" stroke-linejoin="miter" stroke-opacity="1" stroke-width="1" font-family="Bitstream Vera Sans" font-size="12" font-style="normal" font-weight="normal" transform="translate(-89.047931,32.144066)" xml:space="preserve"><flowRegion id="flowRegion2491"><rect id="rect2493" width="28.5" height="20" x="436" y="93.362"/></flowRegion><flowPara id="flowPara2495" font-size="6">6</flowPara></flowRoot><text id="text2497" x="353.783" y="144.497" fill="#000" fill-opacity="1" stroke="none" stroke-linecap="butt" stroke-linejoin="miter" stroke-opacity="1" stroke-width="1" font-family="Bitstream Vera Sans" font-size="12" font-style="normal" font-weight="normal" xml:space="preserve"><tspan id="tspan2499" x="353.783" y="144.497" font-size="6">5</tspan></text><text id="text2501" x="346.982" y="160.208" fill="#000" fill-opacity="1" stroke="none" stroke-linecap="butt" stroke-linejoin="miter" stroke-opacity="1" stroke-width="1" font-family="Bitstream Vera Sans" font-size="6" font-style="normal" font-weight="normal" xml:space="preserve"><tspan id="tspan2503" x="346.982" y="160.208" font-size="6">4</tspan></text><path id="path2505" fill="#000" fill-opacity="1" stroke="#000" stroke-dasharray="none" stroke-miterlimit="4" stroke-opacity="1" stroke-width="1" d="M 418.5,96.112183 A 1.25,1.25 0 1 1 416,96.112183 A 1.25,1.25 0 1 1 418.5,96.112183 z" opacity="1" transform="matrix(0.8571429,0,0,0.8571429,-23.834398,69.724879)"/><text id="text2507" x="329.022" y="159.556" fill="#000" fill-opacity="1" stroke="none" stroke-linecap="butt" stroke-linejoin="miter" stroke-opacity="1" stroke-width="1" font-family="Bitstream Vera Sans" font-size="6" font-style="normal" font-weight="normal" xml:space="preserve"><tspan id="tspan2509" x="329.022" y="159.556" font-size="6">3</tspan></text><text id="text2511" x="319.481" y="144.207" fill="#000" fill-opacity="1" stroke="none" stroke-linecap="butt" stroke-linejoin="miter" stroke-opacity="1" stroke-width="1" font-family="Bitstream Vera Sans" font-size="6" font-style="normal" font-weight="normal" xml:space="preserve"><tspan id="tspan2513" x="319.481" y="144.207" font-size="6">2</tspan></text><path id="path2515" fill="#000" fill-opacity="1" stroke="#000" stroke-dasharray="none" stroke-miterlimit="4" stroke-opacity="1" stroke-width="1" d="M 418.5,96.112183 A 1.25,1.25 0 1 1 416,96.112183 A 1.25,1.25 0 1 1 418.5,96.112183 z" opacity="1" transform="matrix(0.8571429,0,0,0.8571429,-12.855231,69.724879)"/><path id="path2517" fill="#000" fill-opacity="1" stroke="#000" stroke-dasharray="none" stroke-miterlimit="4" stroke-opacity="1" stroke-width="1" d="M 418.5,96.112183 A 1.25,1.25 0 1 1 416,96.112183 A 1.25,1.25 0 1 1 418.5,96.112183 z" opacity="1" transform="matrix(0.8571429,0,0,0.8571429,-7.351416,60.346199)"/><path id="path2519" fill="#000" fill-opacity="1" stroke="#000" stroke-dasharray="none" stroke-miterlimit="4" stroke-opacity="1" stroke-width="1" d="M 418.5,96.112183 A 1.25,1.25 0 1 1 416,96.112183 A 1.25,1.25 0 1 1 418.5,96.112183 z" opacity="1" transform="matrix(0.8571429,0,0,0.8571429,-12.971348,50.672841)"/><path id="path2521" fill="#000" fill-opacity="1" stroke="#000" stroke-dasharray="none" stroke-miterlimit="4" stroke-opacity="1" stroke-width="1" d="M 418.5,96.112183 A 1.25,1.25 0 1 1 416,96.112183 A 1.25,1.25 0 1 1 418.5,96.112183 z" opacity="1" transform="matrix(0.8571429,0,0,0.8571429,-24.031115,50.647715)"/><path id="path2523" fill="#000" fill-opacity="1" stroke="#000" stroke-dasharray="none" stroke-miterlimit="4" stroke-opacity="1" stroke-width="1" d="M 418.5,96.112183 A 1.25,1.25 0 1 1 416,96.112183 A 1.25,1.25 0 1 1 418.5,96.112183 z" opacity="1" transform="matrix(0.8571429,0,0,0.8571429,-29.334416,60.164219)"/></g></svg>